<?xml version="1.0" encoding="UTF-8"?>
<!DOCTYPE svg
PUBLIC "-//W3C//DTD SVG 1.1//EN"
       "http://www.w3.org/Graphics/SVG/1.1/DTD/svg11.dtd">
<svg viewBox="80 30 1106 593" width="1026px" height="563px" xmlns="http://www.w3.org/2000/svg" version="1.1">
   <line x1="561" y1="568" x2="571" y2="568" style="stroke:#b0b;stroke-width:1;"/>
   <line x1="636" y1="497" x2="646" y2="497" style="stroke:#b0b;stroke-width:1;"/>
   <line x1="571" y1="568" x2="636" y2="497" style="stroke:#b0b;stroke-width:1;"/>
   <line x1="568.5" y1="568" x2="564.96446609407" y2="571.53553390593" style="stroke:#b0b;stroke-width:2;"/>
   <line x1="568.5" y1="568" x2="564.96446609407" y2="564.46446609407" style="stroke:#b0b;stroke-width:2;"/>
   <line x1="641" y1="497" x2="637.46446609407" y2="500.53553390593" style="stroke:#b0b;stroke-width:2;"/>
   <line x1="641" y1="497" x2="637.46446609407" y2="493.46446609407" style="stroke:#b0b;stroke-width:2;"/>
   <line x1="404" y1="548" x2="394" y2="548" style="stroke:#0b0;stroke-width:1;"/>
   <line x1="262" y1="210" x2="252" y2="210" style="stroke:#0b0;stroke-width:1;"/>
   <line x1="394" y1="548" x2="262" y2="210" style="stroke:#0b0;stroke-width:1;"/>
   <line x1="396.5" y1="548" x2="400.03553390593" y2="551.53553390593" style="stroke:#0b0;stroke-width:2;"/>
   <line x1="396.5" y1="548" x2="400.03553390593" y2="544.46446609407" style="stroke:#0b0;stroke-width:2;"/>
   <line x1="257" y1="210" x2="260.53553390593" y2="213.53553390593" style="stroke:#0b0;stroke-width:2;"/>
   <line x1="257" y1="210" x2="260.53553390593" y2="206.46446609407" style="stroke:#0b0;stroke-width:2;"/>
   <line x1="406" y1="248" x2="396" y2="248" style="stroke:#c00;stroke-width:1;"/>
   <line x1="262" y1="210" x2="252" y2="210" style="stroke:#c00;stroke-width:1;"/>
   <line x1="396" y1="248" x2="262" y2="210" style="stroke:#c00;stroke-width:1;"/>
   <line x1="398.5" y1="248" x2="402.03553390593" y2="251.53553390593" style="stroke:#c00;stroke-width:2;"/>
   <line x1="398.5" y1="248" x2="402.03553390593" y2="244.46446609407" style="stroke:#c00;stroke-width:2;"/>
   <line x1="257" y1="210" x2="260.53553390593" y2="213.53553390593" style="stroke:#c00;stroke-width:2;"/>
   <line x1="257" y1="210" x2="260.53553390593" y2="206.46446609407" style="stroke:#c00;stroke-width:2;"/>
   <line x1="563" y1="288" x2="573" y2="288" style="stroke:#bbb;stroke-width:1;"/>
   <line x1="627" y1="316" x2="637" y2="316" style="stroke:#bbb;stroke-width:1;"/>
   <line x1="573" y1="288" x2="627" y2="316" style="stroke:#bbb;stroke-width:1;"/>
   <line x1="570.5" y1="288" x2="566.96446609407" y2="291.53553390593" style="stroke:#bbb;stroke-width:2;"/>
   <line x1="570.5" y1="288" x2="566.96446609407" y2="284.46446609407" style="stroke:#bbb;stroke-width:2;"/>
   <line x1="632" y1="316" x2="628.46446609407" y2="319.53553390593" style="stroke:#bbb;stroke-width:2;"/>
   <line x1="632" y1="316" x2="628.46446609407" y2="312.46446609407" style="stroke:#bbb;stroke-width:2;"/>
   <line x1="563" y1="308" x2="573" y2="308" style="stroke:#333;stroke-width:1;"/>
   <line x1="627" y1="316" x2="637" y2="316" style="stroke:#333;stroke-width:1;"/>
   <line x1="573" y1="308" x2="627" y2="316" style="stroke:#333;stroke-width:1;"/>
   <line x1="570.5" y1="308" x2="566.96446609407" y2="311.53553390593" style="stroke:#333;stroke-width:2;"/>
   <line x1="570.5" y1="308" x2="566.96446609407" y2="304.46446609407" style="stroke:#333;stroke-width:2;"/>
   <line x1="632" y1="316" x2="628.46446609407" y2="319.53553390593" style="stroke:#333;stroke-width:2;"/>
   <line x1="632" y1="316" x2="628.46446609407" y2="312.46446609407" style="stroke:#333;stroke-width:2;"/>
   <line x1="563" y1="328" x2="573" y2="328" style="stroke:#c00;stroke-width:1;"/>
   <line x1="627" y1="316" x2="637" y2="316" style="stroke:#c00;stroke-width:1;"/>
   <line x1="573" y1="328" x2="627" y2="316" style="stroke:#c00;stroke-width:1;"/>
   <line x1="570.5" y1="328" x2="566.96446609407" y2="331.53553390593" style="stroke:#c00;stroke-width:2;"/>
   <line x1="570.5" y1="328" x2="566.96446609407" y2="324.46446609407" style="stroke:#c00;stroke-width:2;"/>
   <line x1="632" y1="316" x2="628.46446609407" y2="319.53553390593" style="stroke:#c00;stroke-width:2;"/>
   <line x1="632" y1="316" x2="628.46446609407" y2="312.46446609407" style="stroke:#c00;stroke-width:2;"/>
   <line x1="563" y1="348" x2="573" y2="348" style="stroke:#333;stroke-width:1;"/>
   <line x1="627" y1="316" x2="637" y2="316" style="stroke:#333;stroke-width:1;"/>
   <line x1="573" y1="348" x2="627" y2="316" style="stroke:#333;stroke-width:1;"/>
   <line x1="570.5" y1="348" x2="566.96446609407" y2="351.53553390593" style="stroke:#333;stroke-width:2;"/>
   <line x1="570.5" y1="348" x2="566.96446609407" y2="344.46446609407" style="stroke:#333;stroke-width:2;"/>
   <line x1="632" y1="316" x2="628.46446609407" y2="319.53553390593" style="stroke:#333;stroke-width:2;"/>
   <line x1="632" y1="316" x2="628.46446609407" y2="312.46446609407" style="stroke:#333;stroke-width:2;"/>
   <line x1="563" y1="368" x2="573" y2="368" style="stroke:#333;stroke-width:1;"/>
   <line x1="627" y1="316" x2="637" y2="316" style="stroke:#333;stroke-width:1;"/>
   <line x1="573" y1="368" x2="627" y2="316" style="stroke:#333;stroke-width:1;"/>
   <line x1="570.5" y1="368" x2="566.96446609407" y2="371.53553390593" style="stroke:#333;stroke-width:2;"/>
   <line x1="570.5" y1="368" x2="566.96446609407" y2="364.46446609407" style="stroke:#333;stroke-width:2;"/>
   <line x1="632" y1="316" x2="628.46446609407" y2="319.53553390593" style="stroke:#333;stroke-width:2;"/>
   <line x1="632" y1="316" x2="628.46446609407" y2="312.46446609407" style="stroke:#333;stroke-width:2;"/>
   <line x1="563" y1="388" x2="573" y2="388" style="stroke:#b0b;stroke-width:1;"/>
   <line x1="627" y1="316" x2="637" y2="316" style="stroke:#b0b;stroke-width:1;"/>
   <line x1="573" y1="388" x2="627" y2="316" style="stroke:#b0b;stroke-width:1;"/>
   <line x1="570.5" y1="388" x2="566.96446609407" y2="391.53553390593" style="stroke:#b0b;stroke-width:2;"/>
   <line x1="570.5" y1="388" x2="566.96446609407" y2="384.46446609407" style="stroke:#b0b;stroke-width:2;"/>
   <line x1="632" y1="316" x2="628.46446609407" y2="319.53553390593" style="stroke:#b0b;stroke-width:2;"/>
   <line x1="632" y1="316" x2="628.46446609407" y2="312.46446609407" style="stroke:#b0b;stroke-width:2;"/>
   <line x1="637" y1="336" x2="627" y2="336" style="stroke:#cb0;stroke-width:1;"/>
   <line x1="571" y1="468" x2="561" y2="468" style="stroke:#cb0;stroke-width:1;"/>
   <line x1="627" y1="336" x2="571" y2="468" style="stroke:#cb0;stroke-width:1;"/>
   <line x1="629.5" y1="336" x2="633.03553390593" y2="339.53553390593" style="stroke:#cb0;stroke-width:2;"/>
   <line x1="629.5" y1="336" x2="633.03553390593" y2="332.46446609407" style="stroke:#cb0;stroke-width:2;"/>
   <line x1="566" y1="468" x2="569.53553390593" y2="471.53553390593" style="stroke:#cb0;stroke-width:2;"/>
   <line x1="566" y1="468" x2="569.53553390593" y2="464.46446609407" style="stroke:#cb0;stroke-width:2;"/>
   <line x1="566" y1="85" x2="576" y2="85" style="stroke:#0b0;stroke-width:1;"/>
   <line x1="683" y1="75" x2="693" y2="75" style="stroke:#0b0;stroke-width:1;"/>
   <line x1="576" y1="85" x2="683" y2="75" style="stroke:#0b0;stroke-width:1;"/>
   <line x1="573.5" y1="85" x2="569.96446609407" y2="88.535533905933" style="stroke:#0b0;stroke-width:2;"/>
   <line x1="573.5" y1="85" x2="569.96446609407" y2="81.464466094067" style="stroke:#0b0;stroke-width:2;"/>
   <line x1="688" y1="75" x2="684.46446609407" y2="78.535533905933" style="stroke:#0b0;stroke-width:2;"/>
   <line x1="688" y1="75" x2="684.46446609407" y2="71.464466094067" style="stroke:#0b0;stroke-width:2;"/>
   <line x1="409" y1="105" x2="399" y2="105" style="stroke:#cb0;stroke-width:1;"/>
   <line x1="262" y1="210" x2="252" y2="210" style="stroke:#cb0;stroke-width:1;"/>
   <line x1="399" y1="105" x2="262" y2="210" style="stroke:#cb0;stroke-width:1;"/>
   <line x1="401.5" y1="105" x2="405.03553390593" y2="108.53553390593" style="stroke:#cb0;stroke-width:2;"/>
   <line x1="401.5" y1="105" x2="405.03553390593" y2="101.46446609407" style="stroke:#cb0;stroke-width:2;"/>
   <line x1="257" y1="210" x2="260.53553390593" y2="213.53553390593" style="stroke:#cb0;stroke-width:2;"/>
   <line x1="257" y1="210" x2="260.53553390593" y2="206.46446609407" style="stroke:#cb0;stroke-width:2;"/>
   <line x1="846" y1="224" x2="856" y2="224" style="stroke:#c00;stroke-width:1;"/>
   <line x1="924" y1="196" x2="934" y2="196" style="stroke:#c00;stroke-width:1;"/>
   <line x1="856" y1="224" x2="924" y2="196" style="stroke:#c00;stroke-width:1;"/>
   <line x1="853.5" y1="224" x2="849.96446609407" y2="227.53553390593" style="stroke:#c00;stroke-width:2;"/>
   <line x1="853.5" y1="224" x2="849.96446609407" y2="220.46446609407" style="stroke:#c00;stroke-width:2;"/>
   <line x1="929" y1="196" x2="925.46446609407" y2="199.53553390593" style="stroke:#c00;stroke-width:2;"/>
   <line x1="929" y1="196" x2="925.46446609407" y2="192.46446609407" style="stroke:#c00;stroke-width:2;"/>
   <line x1="689" y1="204" x2="679" y2="204" style="stroke:#c00;stroke-width:1;"/>
   <line x1="573" y1="228" x2="563" y2="228" style="stroke:#c00;stroke-width:1;"/>
   <line x1="679" y1="204" x2="573" y2="228" style="stroke:#c00;stroke-width:1;"/>
   <line x1="681.5" y1="204" x2="685.03553390593" y2="207.53553390593" style="stroke:#c00;stroke-width:2;"/>
   <line x1="681.5" y1="204" x2="685.03553390593" y2="200.46446609407" style="stroke:#c00;stroke-width:2;"/>
   <line x1="568" y1="228" x2="571.53553390593" y2="231.53553390593" style="stroke:#c00;stroke-width:2;"/>
   <line x1="568" y1="228" x2="571.53553390593" y2="224.46446609407" style="stroke:#c00;stroke-width:2;"/>
   <rect width="157" height="20" x="404" y="438" style="fill:#007;stroke:black;"/>
   <text width="157" height="20" x="409" y="452" style="fill:#fff;" font-family="Arial" font-size="16px"> cultural_event</text>
   <rect width="157" height="20" x="404" y="458" style="fill:#aea;stroke:black;"/>
   <text width="157" height="20" x="409" y="472" style="fill:black;" font-family="Arial" font-size="16px">id_cultural_event</text>
   <rect width="157" height="20" x="404" y="478" style="fill:none;stroke:black;"/>
   <text width="157" height="20" x="409" y="492" style="fill:black;" font-family="Arial" font-size="16px">date</text>
   <rect width="157" height="20" x="404" y="498" style="fill:none;stroke:black;"/>
   <text width="157" height="20" x="409" y="512" style="fill:black;" font-family="Arial" font-size="16px">time</text>
   <rect width="157" height="20" x="404" y="518" style="fill:none;stroke:black;"/>
   <text width="157" height="20" x="409" y="532" style="fill:black;" font-family="Arial" font-size="16px">price</text>
   <rect width="157" height="20" x="404" y="538" style="fill:none;stroke:black;"/>
   <text width="157" height="20" x="409" y="552" style="fill:black;" font-family="Arial" font-size="16px">id_piece_of_work</text>
   <rect width="157" height="20" x="404" y="558" style="fill:none;stroke:black;"/>
   <text width="157" height="20" x="409" y="572" style="fill:black;" font-family="Arial" font-size="16px">hall_num</text>
   <rect width="157" height="20" x="95" y="180" style="fill:#007;stroke:black;"/>
   <text width="157" height="20" x="100" y="194" style="fill:#fff;" font-family="Arial" font-size="16px"> cultural_piece_of_work</text>
   <rect width="157" height="20" x="95" y="200" style="fill:#aea;stroke:black;"/>
   <text width="157" height="20" x="100" y="214" style="fill:black;" font-family="Arial" font-size="16px">id_piece_of_work</text>
   <rect width="157" height="20" x="95" y="220" style="fill:none;stroke:black;"/>
   <text width="157" height="20" x="100" y="234" style="fill:black;" font-family="Arial" font-size="16px">name</text>
   <rect width="157" height="20" x="95" y="240" style="fill:none;stroke:black;"/>
   <text width="157" height="20" x="100" y="254" style="fill:black;" font-family="Arial" font-size="16px">genre</text>
   <rect width="157" height="20" x="95" y="260" style="fill:none;stroke:black;"/>
   <text width="157" height="20" x="100" y="274" style="fill:black;" font-family="Arial" font-size="16px">type</text>
   <rect width="157" height="20" x="95" y="280" style="fill:none;stroke:black;"/>
   <text width="157" height="20" x="100" y="294" style="fill:black;" font-family="Arial" font-size="16px">picture</text>
   <rect width="157" height="20" x="95" y="300" style="fill:none;stroke:black;"/>
   <text width="157" height="20" x="100" y="314" style="fill:black;" font-family="Arial" font-size="16px">picture2</text>
   <rect width="157" height="20" x="95" y="320" style="fill:none;stroke:black;"/>
   <text width="157" height="20" x="100" y="334" style="fill:black;" font-family="Arial" font-size="16px">picture3</text>
   <rect width="157" height="20" x="95" y="340" style="fill:none;stroke:black;"/>
   <text width="157" height="20" x="100" y="354" style="fill:black;" font-family="Arial" font-size="16px">picture4</text>
   <rect width="157" height="20" x="95" y="360" style="fill:none;stroke:black;"/>
   <text width="157" height="20" x="100" y="374" style="fill:black;" font-family="Arial" font-size="16px">picture5</text>
   <rect width="157" height="20" x="95" y="380" style="fill:none;stroke:black;"/>
   <text width="157" height="20" x="100" y="394" style="fill:black;" font-family="Arial" font-size="16px">picture6</text>
   <rect width="157" height="20" x="95" y="400" style="fill:none;stroke:black;"/>
   <text width="157" height="20" x="100" y="414" style="fill:black;" font-family="Arial" font-size="16px">poster</text>
   <rect width="157" height="20" x="95" y="420" style="fill:none;stroke:black;"/>
   <text width="157" height="20" x="100" y="434" style="fill:black;" font-family="Arial" font-size="16px">description</text>
   <rect width="157" height="20" x="95" y="440" style="fill:none;stroke:black;"/>
   <text width="157" height="20" x="100" y="454" style="fill:black;" font-family="Arial" font-size="16px">duration</text>
   <rect width="157" height="20" x="95" y="460" style="fill:none;stroke:black;"/>
   <text width="157" height="20" x="100" y="474" style="fill:black;" font-family="Arial" font-size="16px">rating</text>
   <rect width="157" height="20" x="646" y="467" style="fill:#007;stroke:black;"/>
   <text width="157" height="20" x="651" y="481" style="fill:#fff;" font-family="Arial" font-size="16px"> hall</text>
   <rect width="157" height="20" x="646" y="487" style="fill:none;stroke:black;"/>
   <text width="157" height="20" x="651" y="501" style="fill:black;" font-family="Arial" font-size="16px">hall_num</text>
   <rect width="157" height="20" x="646" y="507" style="fill:none;stroke:black;"/>
   <text width="157" height="20" x="651" y="521" style="fill:black;" font-family="Arial" font-size="16px">number_of_rows</text>
   <rect width="157" height="20" x="646" y="527" style="fill:none;stroke:black;"/>
   <text width="157" height="20" x="651" y="541" style="fill:black;" font-family="Arial" font-size="16px">number_of_columns</text>
   <rect width="157" height="20" x="646" y="547" style="fill:none;stroke:black;"/>
   <text width="157" height="20" x="651" y="561" style="fill:black;" font-family="Arial" font-size="16px">address</text>
   <rect width="157" height="20" x="693" y="45" style="fill:#007;stroke:black;"/>
   <text width="157" height="20" x="698" y="59" style="fill:#fff;" font-family="Arial" font-size="16px"> performer</text>
   <rect width="157" height="20" x="693" y="65" style="fill:#aea;stroke:black;"/>
   <text width="157" height="20" x="698" y="79" style="fill:black;" font-family="Arial" font-size="16px">performer_id</text>
   <rect width="157" height="20" x="693" y="85" style="fill:none;stroke:black;"/>
   <text width="157" height="20" x="698" y="99" style="fill:black;" font-family="Arial" font-size="16px">name</text>
   <rect width="157" height="20" x="693" y="105" style="fill:none;stroke:black;"/>
   <text width="157" height="20" x="698" y="119" style="fill:black;" font-family="Arial" font-size="16px">surname</text>
   <rect width="157" height="20" x="406" y="198" style="fill:#007;stroke:black;"/>
   <text width="157" height="20" x="411" y="212" style="fill:#fff;" font-family="Arial" font-size="16px"> reservation</text>
   <rect width="157" height="20" x="406" y="218" style="fill:#aea;stroke:black;"/>
   <text width="157" height="20" x="411" y="232" style="fill:black;" font-family="Arial" font-size="16px">reservation_id</text>
   <rect width="157" height="20" x="406" y="238" style="fill:none;stroke:black;"/>
   <text width="157" height="20" x="411" y="252" style="fill:black;" font-family="Arial" font-size="16px">id_piece_of_work</text>
   <rect width="157" height="20" x="406" y="258" style="fill:none;stroke:black;"/>
   <text width="157" height="20" x="411" y="272" style="fill:black;" font-family="Arial" font-size="16px">paid</text>
   <rect width="157" height="20" x="406" y="278" style="fill:none;stroke:black;"/>
   <text width="157" height="20" x="411" y="292" style="fill:black;" font-family="Arial" font-size="16px">seat1</text>
   <rect width="157" height="20" x="406" y="298" style="fill:none;stroke:black;"/>
   <text width="157" height="20" x="411" y="312" style="fill:black;" font-family="Arial" font-size="16px">seat2</text>
   <rect width="157" height="20" x="406" y="318" style="fill:none;stroke:black;"/>
   <text width="157" height="20" x="411" y="332" style="fill:black;" font-family="Arial" font-size="16px">seat3</text>
   <rect width="157" height="20" x="406" y="338" style="fill:none;stroke:black;"/>
   <text width="157" height="20" x="411" y="352" style="fill:black;" font-family="Arial" font-size="16px">seat4</text>
   <rect width="157" height="20" x="406" y="358" style="fill:none;stroke:black;"/>
   <text width="157" height="20" x="411" y="372" style="fill:black;" font-family="Arial" font-size="16px">seat5</text>
   <rect width="157" height="20" x="406" y="378" style="fill:none;stroke:black;"/>
   <text width="157" height="20" x="411" y="392" style="fill:black;" font-family="Arial" font-size="16px">seat6</text>
   <rect width="157" height="20" x="637" y="286" style="fill:#007;stroke:black;"/>
   <text width="157" height="20" x="642" y="300" style="fill:#fff;" font-family="Arial" font-size="16px"> seat</text>
   <rect width="157" height="20" x="637" y="306" style="fill:#aea;stroke:black;"/>
   <text width="157" height="20" x="642" y="320" style="fill:black;" font-family="Arial" font-size="16px">seat_id</text>
   <rect width="157" height="20" x="637" y="326" style="fill:none;stroke:black;"/>
   <text width="157" height="20" x="642" y="340" style="fill:black;" font-family="Arial" font-size="16px">cultural_event_id</text>
   <rect width="157" height="20" x="637" y="346" style="fill:none;stroke:black;"/>
   <text width="157" height="20" x="642" y="360" style="fill:black;" font-family="Arial" font-size="16px">row</text>
   <rect width="157" height="20" x="637" y="366" style="fill:none;stroke:black;"/>
   <text width="157" height="20" x="642" y="380" style="fill:black;" font-family="Arial" font-size="16px">column</text>
   <rect width="157" height="20" x="637" y="386" style="fill:none;stroke:black;"/>
   <text width="157" height="20" x="642" y="400" style="fill:black;" font-family="Arial" font-size="16px">state</text>
   <rect width="157" height="20" x="409" y="55" style="fill:#007;stroke:black;"/>
   <text width="157" height="20" x="414" y="69" style="fill:#fff;" font-family="Arial" font-size="16px"> stars_in</text>
   <rect width="157" height="20" x="409" y="75" style="fill:#aea;stroke:black;"/>
   <text width="157" height="20" x="414" y="89" style="fill:black;" font-family="Arial" font-size="16px">performer_id</text>
   <rect width="157" height="20" x="409" y="95" style="fill:#aea;stroke:black;"/>
   <text width="157" height="20" x="414" y="109" style="fill:black;" font-family="Arial" font-size="16px">id_piece_of_work</text>
   <rect width="157" height="20" x="934" y="166" style="fill:#007;stroke:black;"/>
   <text width="157" height="20" x="939" y="180" style="fill:#fff;" font-family="Arial" font-size="16px"> user</text>
   <rect width="157" height="20" x="934" y="186" style="fill:none;stroke:black;"/>
   <text width="157" height="20" x="939" y="200" style="fill:black;" font-family="Arial" font-size="16px">username</text>
   <rect width="157" height="20" x="934" y="206" style="fill:none;stroke:black;"/>
   <text width="157" height="20" x="939" y="220" style="fill:black;" font-family="Arial" font-size="16px">name</text>
   <rect width="157" height="20" x="934" y="226" style="fill:none;stroke:black;"/>
   <text width="157" height="20" x="939" y="240" style="fill:black;" font-family="Arial" font-size="16px">surname</text>
   <rect width="157" height="20" x="934" y="246" style="fill:none;stroke:black;"/>
   <text width="157" height="20" x="939" y="260" style="fill:black;" font-family="Arial" font-size="16px">date_of_birth</text>
   <rect width="157" height="20" x="934" y="266" style="fill:none;stroke:black;"/>
   <text width="157" height="20" x="939" y="280" style="fill:black;" font-family="Arial" font-size="16px">phone_number</text>
   <rect width="157" height="20" x="934" y="286" style="fill:none;stroke:black;"/>
   <text width="157" height="20" x="939" y="300" style="fill:black;" font-family="Arial" font-size="16px">e_mail</text>
   <rect width="157" height="20" x="934" y="306" style="fill:none;stroke:black;"/>
   <text width="157" height="20" x="939" y="320" style="fill:black;" font-family="Arial" font-size="16px">rights</text>
   <rect width="157" height="20" x="934" y="326" style="fill:none;stroke:black;"/>
   <text width="157" height="20" x="939" y="340" style="fill:black;" font-family="Arial" font-size="16px">password</text>
   <rect width="157" height="20" x="689" y="154" style="fill:#007;stroke:black;"/>
   <text width="157" height="20" x="694" y="168" style="fill:#fff;" font-family="Arial" font-size="16px"> user_reserves</text>
   <rect width="157" height="20" x="689" y="174" style="fill:#aea;stroke:black;"/>
   <text width="157" height="20" x="694" y="188" style="fill:black;" font-family="Arial" font-size="16px">user_reserve_id</text>
   <rect width="157" height="20" x="689" y="194" style="fill:none;stroke:black;"/>
   <text width="157" height="20" x="694" y="208" style="fill:black;" font-family="Arial" font-size="16px">reservation_id</text>
   <rect width="157" height="20" x="689" y="214" style="fill:none;stroke:black;"/>
   <text width="157" height="20" x="694" y="228" style="fill:black;" font-family="Arial" font-size="16px">username</text>
</svg>
